<svg xmlns="http://www.w3.org/2000/svg" width="600" height="400" viewBox="0 0 600 400">
  <defs>
    <linearGradient id="grad3" x1="0%" y1="0%" x2="100%" y2="100%">
      <stop offset="0%" style="stop-color:#F59E0B;stop-opacity:1" />
      <stop offset="100%" style="stop-color:#D97706;stop-opacity:1" />
    </linearGradient>
  </defs>
  <rect width="600" height="400" fill="url(#grad3)"/>
  <text x="300" y="180" font-family="Arial, sans-serif" font-size="28" font-weight="bold" fill="white" text-anchor="middle">Mobile App</text>
  <text x="300" y="220" font-family="Arial, sans-serif" font-size="24" fill="white" text-anchor="middle">Development</text>
  <rect x="200" y="280" width="80" height="100" rx="12" fill="white" opacity="0.3"/>
  <rect x="210" y="290" width="60" height="8" rx="4" fill="white" opacity="0.8"/>
  <rect x="210" y="305" width="40" height="6" rx="3" fill="white" opacity="0.6"/>
  <rect x="210" y="318" width="50" height="6" rx="3" fill="white" opacity="0.6"/>
  <circle cx="240" cy="350" r="8" fill="white" opacity="0.6"/>
  <rect x="320" y="280" width="80" height="100" rx="12" fill="white" opacity="0.25"/>
  <rect x="330" y="290" width="60" height="8" rx="4" fill="white" opacity="0.7"/>
  <rect x="330" y="305" width="35" height="6" rx="3" fill="white" opacity="0.5"/>
  <rect x="330" y="318" width="45" height="6" rx="3" fill="white" opacity="0.5"/>
  <circle cx="360" cy="350" r="8" fill="white" opacity="0.5"/>
  <circle cx="100" cy="100" r="15" fill="white" opacity="0.3"/>
  <circle cx="500" cy="320" r="20" fill="white" opacity="0.2"/>
</svg>
